PathFileType	4	(X/Y/Z)	OpenSim_Sub03_CSStiffKnee_Accel.trc
DataRate	CameraRate	NumFrames	NumMarkers	Units	OrigDataRate	OrigDataStartFrame	OrigNumFrames
100	100	13	8	m	100	2274	3637
Frame#	Time	torso_imu_offset_imu	pelvis_imu_offset_imu	tibia_r_imu_offset_imu	femur_r_imu_offset_imu	tibia_l_imu_offset_imu	femur_l_imu_offset_imu	toes_r_imu_offset_imu	toes_l_imu_offset_imu
				X1	Y1	Z1	X2	Y2	Z2	X3	Y3	Z3	X4	Y4	Z4	X5	Y5	Z5	X6	Y6	Z6	X7	Y7	Z7	X8		Y8	Z8	

2274	22.73000000	11.22161400	-0.50228000	5.06841500	9.94119800	-0.26532000	4.58770000	9.23879200	6.37071600	-3.44444300	7.23429300	5.60992700	1.30088900	10.90112500	3.17747500	1.06334500	10.54626600	0.59386200	0.19538800	7.97413400	-2.58807900	8.05396200	7.89206100	6.01678100	11.41597900
2275	22.74000000	10.76585800	-0.60973800	4.86149400	9.89728500	0.70343100	4.69718900	10.19829300	7.23930300	-3.23221400	9.14088600	3.82530000	-0.21364100	10.77571100	0.30841300	-0.12253200	10.43864600	0.33741900	0.11778600	7.97838900	-1.26684900	8.15139600	9.17035500	4.51858500	11.27978300
2276	22.75000000	10.45270500	-0.51467100	4.72988200	9.84926800	1.92293500	4.79000100	10.96767500	7.07429400	-1.85405200	11.70424300	1.64241300	-1.84836800	10.18585200	-2.39524300	-0.87680000	10.16923100	-0.27313600	-0.00751800	7.04111900	-1.46923700	8.18459100	9.73256300	3.39780000	11.14137800
2277	22.76000000	10.11505600	-0.45136600	4.78655200	9.74865100	3.18832600	4.77886400	11.10498900	6.33379000	-0.84397100	12.23897300	0.01199600	-2.04561400	9.57574800	-4.47955000	-1.34476700	10.42075800	-1.30701900	0.36476800	6.95513200	-1.08968600	8.57750800	11.75491500	4.13957400	12.85679900
2278	22.77000000	9.78685600	-0.37508900	4.78445000	9.76595800	4.01988100	4.55203500	10.88374400	4.61405100	0.39423300	11.80767600	-1.14065100	-1.11394600	8.82744400	-6.85949400	-1.92555900	11.23102000	-2.46664700	0.89834000	6.55499300	-1.05118600	8.56175600	4.68619200	7.70524700	16.54884400
2279	22.78000000	9.45609700	-0.41288200	4.77755000	9.53927600	4.03515400	4.17406600	10.60070800	3.16148700	0.64529900	10.99523800	-1.38873200	-0.33636000	8.16359200	-9.85918200	-3.33351900	11.84850700	-3.21146400	0.98707700	6.35103000	-0.96212000	8.36962700	1.60163800	15.75152200	25.29845900
2280	22.79000000	9.23284900	-0.35137600	4.76341400	9.50397000	3.50227500	3.88247300	10.44002700	2.68987800	-0.10764600	9.85309700	-0.28494500	0.10671000	6.54974100	-8.25036100	-2.61620400	11.66186000	-3.82188300	-0.02877000	6.35508400	-1.31424500	8.35669100	-7.40687800	8.66680500	18.66521500
2281	22.80000000	9.17903600	-0.20404100	4.94228000	9.37113400	2.70045500	3.81812400	10.28124800	2.49867000	-0.85577700	8.96461600	1.01158900	-0.02854600	5.45614300	-1.51321300	1.14784500	10.79514200	-3.85110700	-0.44057700	6.02119900	-1.85250100	8.15355300	-1.41937500	6.54165700	20.48853500
2282	22.81000000	8.97574700	-0.03121100	5.05444000	9.25975000	1.81992000	3.71410300	10.30169400	2.12794000	-1.46449300	8.58581700	1.61561800	0.13075000	5.48400000	1.13561900	1.54494400	9.77331400	-3.48121300	0.00419800	5.98827500	-2.66875200	7.85903400	-4.21084600	7.41987000	18.49503700
2283	22.82000000	8.55985900	0.12540000	5.03427100	9.06897100	1.03615100	3.77697200	10.03473000	2.04288000	-1.90334300	8.41168300	1.46746800	0.13318900	4.98163400	0.33521500	0.86014200	9.07868600	-2.73773000	-0.07790700	5.94096700	-2.91501300	7.37879400	-3.21057200	6.87068900	17.84158000
2284	22.83000000	8.39752600	0.18427500	4.97847800	8.84106400	0.59451200	3.98241200	9.55183800	1.36772500	-1.65050000	8.57692600	0.75479900	0.07405000	5.38421000	-0.53597300	0.47525300	8.30084700	-1.68139700	0.15664700	5.92257500	-3.28930300	7.45685600	-2.08775000	4.24032500	16.15168800
2285	22.84000000	8.20340600	0.29037700	5.02050800	8.32324700	0.29120900	4.10913200	9.85778500	-0.17659000	-1.10478500	8.53144400	-0.02539100	-0.01468600	6.49813400	0.06865000	0.54848600	7.78353400	-0.91308000	0.19111800	5.39483700	-3.56342900	7.52012000	-0.47011000	3.21605100	15.13574800
2286	22.85000000	8.05694400	0.43864500	4.95401000	7.85516000	0.16447500	4.12383800	9.96345300	-1.61151700	-0.62632500	8.64467000	-0.85049100	-0.33050400	7.11524200	1.08408000	0.87431000	7.64854000	-0.45100200	0.28249600	4.90081700	-3.59293200	7.50146900	0.65220500	3.21702800	14.00238400
